<?xml version="1.0" standalone="no"?>
<!DOCTYPE svg PUBLIC "-//W3C//DTD SVG 20010904//EN"
 "http://www.w3.org/TR/2001/REC-SVG-20010904/DTD/svg10.dtd">
<svg version="1.0" xmlns="http://www.w3.org/2000/svg"
 width="1024.000000pt" height="1024.000000pt" viewBox="0 0 1024.000000 1024.000000"
 preserveAspectRatio="xMidYMid meet">

<g transform="translate(0.000000,1024.000000) scale(0.100000,-0.100000)"
fill="#000000" stroke="none">
<path d="M4773 9034 c-805 -97 -1508 -507 -2001 -1166 -276 -370 -459 -821
-533 -1318 -32 -218 -32 -549 0 -759 101 -661 418 -1297 1196 -2406 491 -700
1458 -2007 1579 -2133 54 -57 97 -68 152 -41 35 16 78 67 251 292 401 523 651
859 1093 1472 380 528 745 1074 925 1385 105 182 272 508 335 654 103 239 175
483 221 741 27 152 37 499 20 666 -71 691 -352 1292 -825 1764 -497 495 -1110
787 -1795 855 -141 14 -482 11 -618 -6z m1001 -944 c63 -32 127 -96 157 -157
22 -45 24 -61 27 -240 l3 -193 -135 0 -136 0 0 150 c0 146 -1 152 -24 175 -13
13 -39 26 -57 30 -19 3 -258 5 -532 3 l-499 -3 -29 -33 -29 -32 0 -145 0 -145
-136 0 -135 0 3 193 c3 179 5 195 27 241 42 86 103 141 190 172 28 11 164 13
646 11 l610 -2 49 -25z m-1824 -2011 l0 -1340 -252 3 c-241 3 -256 4 -305 27
-62 28 -135 102 -166 168 l-22 48 -3 1079 c-3 1185 -5 1138 57 1223 39 54 91
93 154 114 44 16 88 18 295 19 l242 0 0 -1341z m2120 970 l0 -372 -82 6 c-108
7 -273 -7 -373 -33 -241 -63 -477 -225 -633 -435 -73 -98 -157 -271 -189 -390
-25 -93 -27 -114 -27 -300 0 -219 8 -261 73 -432 35 -89 125 -239 184 -303 20
-23 37 -44 37 -46 0 -2 -200 -3 -445 -2 l-445 3 -3 1338 -2 1337 953 0 952 0
0 -371z m724 351 c72 -27 139 -88 173 -158 l28 -57 3 -530 c1 -291 1 -588 0
-660 l-3 -130 -18 58 c-24 79 -108 239 -162 312 -65 87 -169 190 -250 248 -68
48 -257 147 -282 147 -10 0 -13 86 -13 395 l0 395 235 0 c211 0 240 -2 289
-20z m-667 -1005 c259 -66 471 -245 588 -498 59 -127 69 -184 69 -362 0 -145
-3 -168 -27 -248 -28 -89 -79 -199 -124 -269 l-26 -38 164 -157 c90 -87 203
-196 251 -242 52 -50 92 -97 98 -117 20 -60 -15 -134 -85 -180 -37 -24 -111
-20 -149 8 -17 13 -134 129 -261 258 l-230 235 -80 -42 c-44 -23 -120 -54
-170 -69 -82 -26 -104 -28 -255 -28 -161 -1 -167 0 -260 32 -133 46 -230 104
-327 196 -190 179 -283 394 -283 656 0 250 85 462 256 634 225 228 532 311
851 231z"/>
<path d="M5798 6200 c-203 -34 -395 -176 -486 -359 -57 -113 -76 -206 -70
-344 8 -183 65 -314 193 -442 81 -81 170 -136 270 -168 58 -18 93 -22 200 -22
114 1 139 4 206 27 187 65 314 180 396 356 111 239 71 528 -102 730 -144 167
-392 258 -607 222z"/>
</g>
</svg>
